PathFileType        4      (X/Y/Z)      C:\Users\pc\Desktop\IMUTRC\Sujet_01\Sujet_01_Tpose.trc         
DataRate	CameraRate	NumFrames	NumMarkers	Units	OrigDataRate	OrigDataStartFrame	OrigNumFrames
60.0	60.0	4	64	mm	60.0	29	114
Frame#	Time	pHipOrigin			pRightASI			pLeftASI			pRightCSI			pLeftCSI			pRightIschialTub			pLeftIschialTub			pSacrum			pL5SpinalProcess			pL3SpinalProcess			pT12SpinalProcess			pIJ			pT4SpinalProcess			pT8SpinalProcess			pPX			pC7SpinalProcess			pTopOfHead			pRightAuricularis			pLeftAuricularis			pBackOfHead			pRightAcromion			pLeftAcromion			pRightArmLatEpicondyle			pRightArmMedEpicondyle			pLeftArmLatEpicondyle			pLeftArmMedEpicondyle			pRightUlnarStyloid			pRightRadialStyloid			pRightOlecranon			pLeftUlnarStyloid			pLeftRadialStyloid			pLeftOlecranon			pRightTopOfHand			pRightPinky			pRightBallHand			pLeftTopOfHand			pLeftPinky			pLeftBallHand			pRightGreaterTrochanter			pRightKneeLatEpicondyle			pRightKneeMedEpicondyle			pRightPatella			pLeftGreaterTrochanter			pLeftKneeLatEpicondyle			pLeftKneeMedEpicondyle			pLeftPatella			pRightTibialTub			pRightLatMalleolus			pRightMedMalleolus			pLeftTibialTub			pLeftLatMalleolus			pLeftMedMalleolus			pRightHeelFoot			pRightFirstMetatarsal			pRightFifthMetatarsal			pRightPivotFoot			pRightHeelCenter			pRightToe			pLeftHeelFoot			pLeftFirstMetatarsal			pLeftFifthMetatarsal			pLeftPivotFoot			pLeftHeelCenter			pLeftToe			
		X1	Y1	Z1	X2	Y2	Z2	X3	Y3	Z3	X4	Y4	Z4	X5	Y5	Z5	X6	Y6	Z6	X7	Y7	Z7	X8	Y8	Z8	X9	Y9	Z9	X10	Y10	Z10	X11	Y11	Z11	X12	Y12	Z12	X13	Y13	Z13	X14	Y14	Z14	X15	Y15	Z15	X16	Y16	Z16	X17	Y17	Z17	X18	Y18	Z18	X19	Y19	Z19	X20	Y20	Z20	X21	Y21	Z21	X22	Y22	Z22	X23	Y23	Z23	X24	Y24	Z24	X25	Y25	Z25	X26	Y26	Z26	X27	Y27	Z27	X28	Y28	Z28	X29	Y29	Z29	X30	Y30	Z30	X31	Y31	Z31	X32	Y32	Z32	X33	Y33	Z33	X34	Y34	Z34	X35	Y35	Z35	X36	Y36	Z36	X37	Y37	Z37	X38	Y38	Z38	X39	Y39	Z39	X40	Y40	Z40	X41	Y41	Z41	X42	Y42	Z42	X43	Y43	Z43	X44	Y44	Z44	X45	Y45	Z45	X46	Y46	Z46	X47	Y47	Z47	X48	Y48	Z48	X49	Y49	Z49	X50	Y50	Z50	X51	Y51	Z51	X52	Y52	Z52	X53	Y53	Z53	X54	Y54	Z54	X55	Y55	Z55	X56	Y56	Z56	X57	Y57	Z57	X58	Y58	Z58	X59	Y59	Z59	X60	Y60	Z60	X61	Y61	Z61	X62	Y62	Z62	X63	Y63	Z63	X64	Y64	Z64	
29	0.467	0.0	1249.97542	7.653891985579342E-14	29.316989999999983	1347.44652	131.51663000000008	70.29772000000001	1348.01394	-114.4308199999999	-14.311730000000013	1403.87384	101.88441000000009	19.41856000000001	1404.31517	-100.30822999999991	-52.64448000000001	1192.03497	43.061290000000064	-35.81085999999999	1192.22411	-58.066549999999935	-62.47986	1262.20659	-10.402799999999928	-39.53065	1352.4903	-6.556919999999922	-34.61296	1456.77051	-6.367779999999915	-37.1979	1552.16105	-7.817859999999909	108.63047	1742.43774	15.95096000000012	-28.43432	1729.82829	-8.826619999999897	-37.57618	1647.29939	-9.204899999999904	100.68651	1629.20482	16.26620000000011	-22.94921	1778.37469	-6.430819999999893	42.43082	2017.26085	6.115590000000129	43.376529999999995	1920.16803	68.09106000000011	39.34150000000001	1925.65315	-63.55165999999987	-10.4028	1923.44649	3.8458800000001165	-31.52364000000002	1747.22934	172.5604100000001	21.24693000000002	1764.18906	-176.3432499999999	-98.47986000000004	1627.18731	372.1050600000001	-53.65324000000004	1597.3029	369.8984100000001	41.67425000000005	1651.8388	-393.9194199999999	74.77408000000004	1613.88433	-374.5008599999999	-86.12259000000007	1517.2959	558.6619700000001	-111.71978000000007	1550.33267	572.4062800000002	-64.43432000000004	1598.3747	360.6935000000001	100.49737000000007	1536.14704	-566.4798299999999	90.66199000000007	1573.72322	-587.0332499999998	61.15586000000004	1616.97365	-371.09629999999987	-198.91418000000007	1468.37121	684.8826300000001	-129.0577900000001	1473.60413	644.6584600000001	-101.38003000000008	1516.35019	599.7057500000001	88.20315000000008	1508.28014	-738.9141499999998	104.78458000000009	1494.85107	-660.9877099999999	109.57618000000006	1532.49029	-604.6234399999998	-31.523640000000018	1219.96491	140.8476300000001	-47.47460000000002	876.23113	106.61295000000005	-28.182140000000004	876.54637	42.178630000000055	-1.1348500000000101	876.29418	83.03327000000006	6.683010000000018	1219.27139	-142.61294999999993	-7.502629999999987	875.66371	-106.73904999999995	0.4413300000000049	877.05075	-40.035019999999946	34.10858000000001	877.05075	-75.59368999999994	10.52889999999999	839.47457	87.50963000000006	-85.30297000000002	471.97196	97.28196000000001	-67.77583	470.77406	39.78284000000002	48.29422000000001	842.68998	-81.26794999999994	-24.27319999999998	473.48509	-134.10156999999998	-16.07705999999999	468.31521	-74.71102999999997	-111.90893	330.87214	49.99649000000001	67.46058999999998	334.97021	100.62346000000002	24.588439999999977	335.60068	177.73029000000002	68.46934999999999	335.85287	150.30472000000003	-74.14360000000002	329.61119	70.99124	132.65147999999996	341.14885	185.98948000000004	-56.36426999999998	330.05252	-90.91417999999999	129.62521	339.06828	-81.07880999999998	114.11558000000001	334.65497	-167.76881999999998	146.71103000000002	337.80734	-127.73378999999997	-13.807349999999987	329.359	-98.47985999999999	218.83712000000003	344.11207	-140.97371999999993	
30	0.483	0.0	1249.97542	7.653891985579342E-14	29.253939999999982	1347.44652	131.51663000000008	70.36077000000002	1348.01394	-114.4308199999999	-14.248690000000012	1403.87384	101.88441000000009	19.48161000000001	1404.31517	-100.30822999999991	-52.64448000000001	1192.03497	43.061290000000064	-35.81085999999999	1192.28716	-58.066549999999935	-62.47986	1262.20659	-10.402799999999928	-39.53065	1352.4903	-6.556919999999922	-34.54991	1456.77051	-6.367779999999915	-37.0718	1552.16105	-7.754819999999909	108.81961	1742.3747	16.14010000000012	-28.24518	1729.89133	-8.700519999999896	-37.45009	1647.29939	-9.078809999999905	100.8126	1629.14178	16.39229000000011	-22.76007	1778.37469	-6.241679999999893	42.30473	2017.26085	6.367780000000129	43.43957999999999	1920.23108	68.28021000000011	39.40455000000001	1925.71619	-63.362519999999876	-10.33975	1923.38344	4.098070000000117	-31.271450000000023	1747.10324	172.7495500000001	21.56217000000002	1764.18906	-176.1541099999999	-97.91243000000004	1627.06122	372.35725000000014	-53.085810000000045	1597.1768	370.0245000000001	42.30473000000005	1651.90185	-393.7302799999999	75.27846000000004	1614.01043	-374.2486699999999	-85.23993000000007	1517.10676	558.8511100000001	-110.83712000000007	1550.14353	572.6584700000001	-63.929940000000045	1598.24861	360.8196000000001	101.31698000000007	1536.27313	-566.2276399999998	91.54465000000008	1573.91236	-586.8440999999999	61.72329000000004	1617.09975	-370.90715999999986	-197.84237000000007	1468.18207	685.2609100000001	-127.98598000000008	1473.41499	644.9106500000001	-100.43432000000007	1516.16105	599.8948900000001	89.33800000000008	1508.53233	-738.7250099999999	105.79334000000009	1495.04021	-660.7985699999999	110.39579000000008	1532.67944	-604.3712499999999	-31.58669000000002	1219.96491	140.8476300000001	-47.53765000000001	876.23113	106.61295000000005	-28.245180000000005	876.54637	42.24168000000006	-1.1979000000000102	876.29418	83.09632000000006	6.683010000000018	1219.27139	-142.61294999999993	-7.502629999999987	875.66371	-106.73904999999995	0.3782800000000049	877.05075	-40.035019999999946	34.10858000000001	877.05075	-75.59368999999994	10.465849999999989	839.53761	87.50963000000006	-85.36602000000002	471.97196	97.28196000000001	-67.83888	470.77406	39.78284000000002	48.231170000000006	842.68998	-81.26794999999994	-24.336249999999982	473.48509	-134.10156999999998	-16.07705999999999	468.31521	-74.77407999999997	-111.97197	330.87214	49.99649000000001	67.46058999999998	334.97021	100.68651000000003	24.52538999999998	335.60068	177.73029000000002	68.46934999999999	335.85287	150.30472000000003	-74.20665000000001	329.61119	70.99124	132.58842999999996	341.14885	185.98948000000004	-56.36426999999998	330.05252	-90.91417999999999	129.62521	339.06828	-81.07880999999998	114.11558000000001	334.65497	-167.76881999999998	146.71103000000002	337.80734	-127.73378999999997	-13.807349999999987	329.359	-98.47985999999999	218.77407000000002	344.11207	-140.97371999999993	
31	0.5	0.0	1249.97542	7.653891985579342E-14	29.253939999999982	1347.44652	131.51663000000008	70.36077000000002	1348.01394	-114.4308199999999	-14.248690000000012	1403.87384	101.88441000000009	19.54466000000001	1404.31517	-100.30822999999991	-52.707530000000006	1192.03497	42.99825000000006	-35.81085999999999	1192.28716	-58.066549999999935	-62.47986	1262.26964	-10.402799999999928	-39.53065	1352.4903	-6.619959999999922	-34.48686	1456.83355	-6.367779999999915	-37.00875	1552.16105	-7.754819999999909	108.9457	1742.31165	16.32925000000012	-28.05604	1729.89133	-8.574429999999897	-37.32399	1647.29939	-9.015759999999904	100.9387	1629.07873	16.51839000000011	-22.57093	1778.31165	-6.1155899999998935	42.24168	2017.32389	6.619960000000129	43.50261999999999	1920.23108	68.46935000000012	39.40455000000001	1925.71619	-63.173379999999874	-10.27671	1923.3204	4.287220000000117	-31.01926000000002	1747.0402	172.87565000000012	21.814360000000022	1764.2521	-176.02800999999988	-97.40805000000005	1626.87207	372.5463900000001	-52.51839000000004	1597.05071	370.15059000000014	42.80910000000005	1652.02794	-393.6041799999999	75.84588000000004	1614.07348	-374.1225699999999	-84.42031000000007	1516.98066	559.0402500000001	-109.95446000000007	1549.95439	572.8476100000001	-63.42557000000004	1598.12251	361.0087400000001	102.01050000000006	1536.39922	-566.1015499999999	92.30122000000007	1574.03845	-586.6549599999998	62.227670000000046	1617.16279	-370.7810699999999	-196.77057000000008	1467.99292	685.5761500000001	-127.04027000000009	1473.22585	645.0997900000001	-99.48861000000007	1516.03495	600.0840300000001	90.34676000000009	1508.78452	-738.5989099999999	106.67600000000009	1495.22935	-660.6094199999999	111.21541000000008	1532.80553	-604.1821099999999	-31.58669000000002	1219.96491	140.8476300000001	-47.60070000000002	876.29418	106.61295000000005	-28.308230000000002	876.54637	42.24168000000006	-1.2609500000000102	876.29418	83.09632000000006	6.683010000000018	1219.33444	-142.61294999999993	-7.502629999999987	875.66371	-106.73904999999995	0.3782800000000049	877.05075	-40.035019999999946	34.04553000000001	877.05075	-75.59368999999994	10.402799999999989	839.53761	87.50963000000006	-85.42907000000001	471.97196	97.28196000000001	-67.90192	470.77406	39.78284000000002	48.231170000000006	842.68998	-81.26794999999994	-24.336249999999982	473.48509	-134.10156999999998	-16.14009999999999	468.31521	-74.77407999999997	-112.03502	330.87214	49.99649000000001	67.39753999999999	334.97021	100.68651000000003	24.46234999999998	335.60068	177.73029000000002	68.40629999999999	335.85287	150.30472000000003	-74.26970000000001	329.61119	70.99124	132.52538999999996	341.14885	185.98948000000004	-56.36426999999998	330.05252	-90.91417999999999	129.62521	339.06828	-81.07880999999998	114.05253000000002	334.65497	-167.76881999999998	146.64798000000002	337.80734	-127.73378999999997	-13.807349999999987	329.42205	-98.54289999999999	218.77407000000002	344.11207	-140.97371999999993	
32	0.517	0.0	1249.97542	7.653891985579342E-14	29.253939999999982	1347.44652	131.51663000000008	70.42381000000002	1348.01394	-114.3677699999999	-14.248690000000012	1403.87384	101.88441000000009	19.607700000000012	1404.31517	-100.30822999999991	-52.707530000000006	1192.03497	42.99825000000006	-35.81085999999999	1192.28716	-58.066549999999935	-62.47986	1262.26964	-10.465849999999929	-39.4676	1352.4903	-6.619959999999922	-34.42382	1456.83355	-6.367779999999915	-36.88266	1552.16105	-7.691769999999909	109.0718	1742.31165	16.45534000000012	-27.92995	1729.89133	-8.448339999999897	-37.1979	1647.36244	-8.952709999999904	101.00175	1629.07873	16.64448000000011	-22.44483	1778.31165	-5.989489999999893	42.17863	2017.32389	6.872150000000129	43.628719999999994	1920.16803	68.65849000000011	39.467600000000004	1925.77924	-62.98423999999987	-10.21366	1923.25735	4.539400000000117	-30.830120000000022	1746.97715	173.00174000000013	22.00350000000002	1764.2521	-175.90191999999988	-96.90367000000005	1626.74598	372.7355300000001	-52.077060000000046	1596.86157	370.2766900000001	43.31348000000005	1652.09099	-393.4780899999999	76.28721000000004	1614.13652	-373.9334299999999	-83.66374000000008	1516.79152	559.1663500000001	-109.19789000000007	1549.8283	573.0367500000001	-62.98424000000004	1597.93337	361.07179000000014	102.70402000000007	1536.52532	-565.9124099999999	93.05779000000007	1574.16455	-586.4658199999999	62.66900000000004	1617.22584	-370.5919299999999	-195.8248600000001	1467.86683	685.9544300000001	-126.09456000000009	1473.09975	645.3519800000001	-98.66900000000007	1515.84581	600.2731800000001	91.29246000000009	1508.91061	-738.4728199999998	107.43257000000008	1495.41849	-660.4833299999999	111.97197000000007	1532.93162	-604.0560099999999	-31.64974000000002	1219.96491	140.7845800000001	-47.663750000000014	876.29418	106.54991000000005	-28.371280000000002	876.54637	42.178630000000055	-1.3239900000000102	876.29418	83.09632000000006	6.746060000000018	1219.33444	-142.61294999999993	-7.565669999999987	875.66371	-106.73904999999995	0.3152400000000049	877.05075	-40.035019999999946	34.04553000000001	877.05075	-75.59368999999994	10.33974999999999	839.53761	87.50963000000006	-85.49211000000001	471.97196	97.28196000000001	-67.96497	470.77406	39.719790000000025	48.231170000000006	842.68998	-81.20489999999994	-24.399299999999982	473.48509	-134.16461999999999	-16.14009999999999	468.31521	-74.77407999999997	-112.09807	330.87214	49.93345000000001	67.27144999999999	334.97021	100.62346000000002	24.39929999999998	335.66373	177.73029000000002	68.28020999999998	335.85287	150.30472000000003	-74.33275000000002	329.61119	70.99124	132.46233999999998	341.14885	185.98948000000004	-56.42731999999999	330.05252	-90.91417999999999	129.56217	339.06828	-81.07880999999998	113.98949000000002	334.65497	-167.83186999999998	146.58493000000004	337.80734	-127.73378999999997	-13.870399999999988	329.42205	-98.54289999999999	218.71102000000002	344.04902	-140.97371999999993	
